<mxfile host="app.diagrams.net" agent="Mozilla/5.0 (Windows NT 10.0; Win64; x64) AppleWebKit/537.36 (KHTML, like Gecko) Chrome/133.0.0.0 Safari/537.36 Edg/133.0.0.0" version="26.0.16">
  <diagram name="Página-1" id="0roOkrqSgenMZHxSDU-n">
    <mxGraphModel dx="1895" dy="2196" grid="1" gridSize="10" guides="1" tooltips="1" connect="1" arrows="1" fold="1" page="1" pageScale="1" pageWidth="827" pageHeight="1169" math="0" shadow="0">
      <root>
        <mxCell id="0" />
        <mxCell id="1" parent="0" />
        <mxCell id="WzQMr4qSlncRj3BHudcg-3" style="edgeStyle=orthogonalEdgeStyle;rounded=0;orthogonalLoop=1;jettySize=auto;html=1;exitX=1;exitY=0.5;exitDx=0;exitDy=0;exitPerimeter=0;entryX=0;entryY=0.5;entryDx=0;entryDy=0;" edge="1" parent="1" source="lWj-EIrfLnZZSR6V_0Eu-1" target="WzQMr4qSlncRj3BHudcg-1">
          <mxGeometry relative="1" as="geometry" />
        </mxCell>
        <mxCell id="WzQMr4qSlncRj3BHudcg-5" style="edgeStyle=orthogonalEdgeStyle;rounded=0;orthogonalLoop=1;jettySize=auto;html=1;exitX=1;exitY=0.5;exitDx=0;exitDy=0;exitPerimeter=0;entryX=0;entryY=0.5;entryDx=0;entryDy=0;" edge="1" parent="1" source="lWj-EIrfLnZZSR6V_0Eu-1" target="WzQMr4qSlncRj3BHudcg-4">
          <mxGeometry relative="1" as="geometry" />
        </mxCell>
        <mxCell id="lWj-EIrfLnZZSR6V_0Eu-1" value="Início" style="strokeWidth=2;html=1;shape=mxgraph.flowchart.start_2;whiteSpace=wrap;" parent="1" vertex="1">
          <mxGeometry x="20" y="280" width="100" height="100" as="geometry" />
        </mxCell>
        <mxCell id="lWj-EIrfLnZZSR6V_0Eu-2" value="Fim" style="strokeWidth=2;html=1;shape=mxgraph.flowchart.terminator;whiteSpace=wrap;" parent="1" vertex="1">
          <mxGeometry x="1280" y="300" width="100" height="60" as="geometry" />
        </mxCell>
        <mxCell id="lWj-EIrfLnZZSR6V_0Eu-3" value="Gestão de Projetos" style="text;strokeColor=none;fillColor=none;align=left;verticalAlign=middle;spacingLeft=4;spacingRight=4;overflow=hidden;points=[[0,0.5],[1,0.5]];portConstraint=eastwest;rotatable=0;whiteSpace=wrap;html=1;perimeterSpacing=0;fontSize=32;fontStyle=2" parent="1" vertex="1">
          <mxGeometry x="585" y="-200" width="310" height="50" as="geometry" />
        </mxCell>
        <mxCell id="WzQMr4qSlncRj3BHudcg-9" value="" style="edgeStyle=orthogonalEdgeStyle;rounded=0;orthogonalLoop=1;jettySize=auto;html=1;" edge="1" parent="1" source="WzQMr4qSlncRj3BHudcg-1" target="WzQMr4qSlncRj3BHudcg-8">
          <mxGeometry relative="1" as="geometry" />
        </mxCell>
        <mxCell id="WzQMr4qSlncRj3BHudcg-1" value="&lt;font style=&quot;font-size: 18px;&quot;&gt;A&lt;/font&gt;" style="rounded=1;whiteSpace=wrap;html=1;" vertex="1" parent="1">
          <mxGeometry x="170" y="130" width="120" height="60" as="geometry" />
        </mxCell>
        <mxCell id="WzQMr4qSlncRj3BHudcg-2" value="12" style="text;html=1;align=center;verticalAlign=middle;resizable=0;points=[];autosize=1;strokeColor=none;fillColor=none;" vertex="1" parent="1">
          <mxGeometry x="210" y="100" width="40" height="30" as="geometry" />
        </mxCell>
        <mxCell id="WzQMr4qSlncRj3BHudcg-34" value="" style="edgeStyle=orthogonalEdgeStyle;rounded=0;orthogonalLoop=1;jettySize=auto;html=1;" edge="1" parent="1" source="WzQMr4qSlncRj3BHudcg-4" target="WzQMr4qSlncRj3BHudcg-33">
          <mxGeometry relative="1" as="geometry" />
        </mxCell>
        <mxCell id="WzQMr4qSlncRj3BHudcg-4" value="&lt;font style=&quot;font-size: 18px;&quot;&gt;I&lt;/font&gt;" style="rounded=1;whiteSpace=wrap;html=1;" vertex="1" parent="1">
          <mxGeometry x="170" y="500" width="120" height="60" as="geometry" />
        </mxCell>
        <mxCell id="WzQMr4qSlncRj3BHudcg-6" value="7" style="text;html=1;align=center;verticalAlign=middle;resizable=0;points=[];autosize=1;strokeColor=none;fillColor=none;" vertex="1" parent="1">
          <mxGeometry x="215" y="470" width="30" height="30" as="geometry" />
        </mxCell>
        <mxCell id="WzQMr4qSlncRj3BHudcg-12" value="" style="edgeStyle=orthogonalEdgeStyle;rounded=0;orthogonalLoop=1;jettySize=auto;html=1;" edge="1" parent="1" source="WzQMr4qSlncRj3BHudcg-8" target="WzQMr4qSlncRj3BHudcg-11">
          <mxGeometry relative="1" as="geometry" />
        </mxCell>
        <mxCell id="WzQMr4qSlncRj3BHudcg-17" style="edgeStyle=orthogonalEdgeStyle;rounded=0;orthogonalLoop=1;jettySize=auto;html=1;exitX=0.5;exitY=1;exitDx=0;exitDy=0;entryX=0;entryY=0.5;entryDx=0;entryDy=0;" edge="1" parent="1" source="WzQMr4qSlncRj3BHudcg-8" target="WzQMr4qSlncRj3BHudcg-14">
          <mxGeometry relative="1" as="geometry" />
        </mxCell>
        <mxCell id="WzQMr4qSlncRj3BHudcg-21" value="" style="edgeStyle=orthogonalEdgeStyle;rounded=0;orthogonalLoop=1;jettySize=auto;html=1;entryX=0;entryY=0.5;entryDx=0;entryDy=0;exitX=0.5;exitY=0;exitDx=0;exitDy=0;" edge="1" parent="1" source="WzQMr4qSlncRj3BHudcg-8" target="WzQMr4qSlncRj3BHudcg-20">
          <mxGeometry relative="1" as="geometry" />
        </mxCell>
        <mxCell id="WzQMr4qSlncRj3BHudcg-8" value="&lt;font style=&quot;font-size: 18px;&quot;&gt;B&lt;/font&gt;" style="rounded=1;whiteSpace=wrap;html=1;" vertex="1" parent="1">
          <mxGeometry x="370" y="130" width="120" height="60" as="geometry" />
        </mxCell>
        <mxCell id="WzQMr4qSlncRj3BHudcg-10" value="4" style="text;html=1;align=center;verticalAlign=middle;resizable=0;points=[];autosize=1;strokeColor=none;fillColor=none;" vertex="1" parent="1">
          <mxGeometry x="384" y="100" width="30" height="30" as="geometry" />
        </mxCell>
        <mxCell id="WzQMr4qSlncRj3BHudcg-13" value="9" style="text;html=1;align=center;verticalAlign=middle;resizable=0;points=[];autosize=1;strokeColor=none;fillColor=none;" vertex="1" parent="1">
          <mxGeometry x="615" y="100" width="30" height="30" as="geometry" />
        </mxCell>
        <mxCell id="WzQMr4qSlncRj3BHudcg-24" value="" style="edgeStyle=orthogonalEdgeStyle;rounded=0;orthogonalLoop=1;jettySize=auto;html=1;" edge="1" parent="1" source="WzQMr4qSlncRj3BHudcg-14" target="WzQMr4qSlncRj3BHudcg-23">
          <mxGeometry relative="1" as="geometry" />
        </mxCell>
        <mxCell id="WzQMr4qSlncRj3BHudcg-14" value="&lt;font style=&quot;font-size: 18px;&quot;&gt;D&lt;/font&gt;" style="rounded=1;whiteSpace=wrap;html=1;" vertex="1" parent="1">
          <mxGeometry x="570" y="230" width="120" height="60" as="geometry" />
        </mxCell>
        <mxCell id="WzQMr4qSlncRj3BHudcg-16" value="" style="edgeStyle=orthogonalEdgeStyle;rounded=0;orthogonalLoop=1;jettySize=auto;html=1;" edge="1" parent="1" source="WzQMr4qSlncRj3BHudcg-8" target="WzQMr4qSlncRj3BHudcg-11">
          <mxGeometry relative="1" as="geometry">
            <mxPoint x="490" y="160" as="sourcePoint" />
            <mxPoint x="630" y="270" as="targetPoint" />
          </mxGeometry>
        </mxCell>
        <mxCell id="WzQMr4qSlncRj3BHudcg-25" style="edgeStyle=orthogonalEdgeStyle;rounded=0;orthogonalLoop=1;jettySize=auto;html=1;exitX=1;exitY=0.5;exitDx=0;exitDy=0;" edge="1" parent="1" source="WzQMr4qSlncRj3BHudcg-11" target="WzQMr4qSlncRj3BHudcg-23">
          <mxGeometry relative="1" as="geometry" />
        </mxCell>
        <mxCell id="WzQMr4qSlncRj3BHudcg-11" value="&lt;font style=&quot;font-size: 18px;&quot;&gt;C&lt;/font&gt;" style="rounded=1;whiteSpace=wrap;html=1;" vertex="1" parent="1">
          <mxGeometry x="570" y="130" width="120" height="60" as="geometry" />
        </mxCell>
        <mxCell id="WzQMr4qSlncRj3BHudcg-18" value="5" style="text;html=1;align=center;verticalAlign=middle;resizable=0;points=[];autosize=1;strokeColor=none;fillColor=none;" vertex="1" parent="1">
          <mxGeometry x="615" y="200" width="30" height="30" as="geometry" />
        </mxCell>
        <mxCell id="WzQMr4qSlncRj3BHudcg-28" value="" style="edgeStyle=orthogonalEdgeStyle;rounded=0;orthogonalLoop=1;jettySize=auto;html=1;" edge="1" parent="1" source="WzQMr4qSlncRj3BHudcg-20" target="WzQMr4qSlncRj3BHudcg-27">
          <mxGeometry relative="1" as="geometry" />
        </mxCell>
        <mxCell id="WzQMr4qSlncRj3BHudcg-30" value="" style="edgeStyle=orthogonalEdgeStyle;rounded=0;orthogonalLoop=1;jettySize=auto;html=1;exitX=0.5;exitY=0;exitDx=0;exitDy=0;entryX=0;entryY=0.5;entryDx=0;entryDy=0;" edge="1" parent="1" source="WzQMr4qSlncRj3BHudcg-20" target="WzQMr4qSlncRj3BHudcg-29">
          <mxGeometry relative="1" as="geometry" />
        </mxCell>
        <mxCell id="WzQMr4qSlncRj3BHudcg-20" value="&lt;font style=&quot;font-size: 18px;&quot;&gt;E&lt;/font&gt;" style="rounded=1;whiteSpace=wrap;html=1;" vertex="1" parent="1">
          <mxGeometry x="570" y="30" width="120" height="60" as="geometry" />
        </mxCell>
        <mxCell id="WzQMr4qSlncRj3BHudcg-22" value="3" style="text;html=1;align=center;verticalAlign=middle;resizable=0;points=[];autosize=1;strokeColor=none;fillColor=none;" vertex="1" parent="1">
          <mxGeometry x="585" width="30" height="30" as="geometry" />
        </mxCell>
        <mxCell id="WzQMr4qSlncRj3BHudcg-52" style="edgeStyle=orthogonalEdgeStyle;rounded=0;orthogonalLoop=1;jettySize=auto;html=1;exitX=1;exitY=0.5;exitDx=0;exitDy=0;entryX=0;entryY=0.5;entryDx=0;entryDy=0;" edge="1" parent="1" source="WzQMr4qSlncRj3BHudcg-23" target="WzQMr4qSlncRj3BHudcg-48">
          <mxGeometry relative="1" as="geometry" />
        </mxCell>
        <mxCell id="WzQMr4qSlncRj3BHudcg-23" value="&lt;font style=&quot;font-size: 18px;&quot;&gt;F&lt;/font&gt;" style="rounded=1;whiteSpace=wrap;html=1;" vertex="1" parent="1">
          <mxGeometry x="780" y="180" width="120" height="60" as="geometry" />
        </mxCell>
        <mxCell id="WzQMr4qSlncRj3BHudcg-26" value="5" style="text;html=1;align=center;verticalAlign=middle;resizable=0;points=[];autosize=1;strokeColor=none;fillColor=none;" vertex="1" parent="1">
          <mxGeometry x="825" y="150" width="30" height="30" as="geometry" />
        </mxCell>
        <mxCell id="WzQMr4qSlncRj3BHudcg-54" style="edgeStyle=orthogonalEdgeStyle;rounded=0;orthogonalLoop=1;jettySize=auto;html=1;exitX=1;exitY=0.5;exitDx=0;exitDy=0;entryX=0;entryY=0.5;entryDx=0;entryDy=0;" edge="1" parent="1" source="WzQMr4qSlncRj3BHudcg-27" target="WzQMr4qSlncRj3BHudcg-48">
          <mxGeometry relative="1" as="geometry" />
        </mxCell>
        <mxCell id="WzQMr4qSlncRj3BHudcg-27" value="&lt;font style=&quot;font-size: 18px;&quot;&gt;G&lt;/font&gt;" style="rounded=1;whiteSpace=wrap;html=1;" vertex="1" parent="1">
          <mxGeometry x="780" y="30" width="120" height="60" as="geometry" />
        </mxCell>
        <mxCell id="WzQMr4qSlncRj3BHudcg-55" style="edgeStyle=orthogonalEdgeStyle;rounded=0;orthogonalLoop=1;jettySize=auto;html=1;exitX=1;exitY=0.5;exitDx=0;exitDy=0;entryX=0;entryY=0.5;entryDx=0;entryDy=0;" edge="1" parent="1" source="WzQMr4qSlncRj3BHudcg-29" target="WzQMr4qSlncRj3BHudcg-48">
          <mxGeometry relative="1" as="geometry">
            <mxPoint x="1150" y="300" as="targetPoint" />
          </mxGeometry>
        </mxCell>
        <mxCell id="WzQMr4qSlncRj3BHudcg-29" value="&lt;font style=&quot;font-size: 18px;&quot;&gt;H&lt;/font&gt;" style="rounded=1;whiteSpace=wrap;html=1;" vertex="1" parent="1">
          <mxGeometry x="780" y="-70" width="120" height="60" as="geometry" />
        </mxCell>
        <mxCell id="WzQMr4qSlncRj3BHudcg-31" value="5" style="text;html=1;align=center;verticalAlign=middle;resizable=0;points=[];autosize=1;strokeColor=none;fillColor=none;" vertex="1" parent="1">
          <mxGeometry x="825" y="-100" width="30" height="30" as="geometry" />
        </mxCell>
        <mxCell id="WzQMr4qSlncRj3BHudcg-32" value="6" style="text;html=1;align=center;verticalAlign=middle;resizable=0;points=[];autosize=1;strokeColor=none;fillColor=none;" vertex="1" parent="1">
          <mxGeometry x="825" width="30" height="30" as="geometry" />
        </mxCell>
        <mxCell id="WzQMr4qSlncRj3BHudcg-37" value="" style="edgeStyle=orthogonalEdgeStyle;rounded=0;orthogonalLoop=1;jettySize=auto;html=1;" edge="1" parent="1" source="WzQMr4qSlncRj3BHudcg-33" target="WzQMr4qSlncRj3BHudcg-36">
          <mxGeometry relative="1" as="geometry" />
        </mxCell>
        <mxCell id="WzQMr4qSlncRj3BHudcg-40" value="" style="edgeStyle=orthogonalEdgeStyle;rounded=0;orthogonalLoop=1;jettySize=auto;html=1;exitX=0.5;exitY=1;exitDx=0;exitDy=0;entryX=0;entryY=0.5;entryDx=0;entryDy=0;" edge="1" parent="1" source="WzQMr4qSlncRj3BHudcg-33" target="WzQMr4qSlncRj3BHudcg-39">
          <mxGeometry relative="1" as="geometry" />
        </mxCell>
        <mxCell id="WzQMr4qSlncRj3BHudcg-33" value="&lt;font style=&quot;font-size: 18px;&quot;&gt;J&lt;/font&gt;" style="rounded=1;whiteSpace=wrap;html=1;" vertex="1" parent="1">
          <mxGeometry x="370" y="500" width="120" height="60" as="geometry" />
        </mxCell>
        <mxCell id="WzQMr4qSlncRj3BHudcg-35" value="4" style="text;html=1;align=center;verticalAlign=middle;resizable=0;points=[];autosize=1;strokeColor=none;fillColor=none;" vertex="1" parent="1">
          <mxGeometry x="415" y="470" width="30" height="30" as="geometry" />
        </mxCell>
        <mxCell id="WzQMr4qSlncRj3BHudcg-53" style="edgeStyle=orthogonalEdgeStyle;rounded=0;orthogonalLoop=1;jettySize=auto;html=1;exitX=1;exitY=0.5;exitDx=0;exitDy=0;entryX=0;entryY=0.5;entryDx=0;entryDy=0;" edge="1" parent="1" source="WzQMr4qSlncRj3BHudcg-36" target="WzQMr4qSlncRj3BHudcg-48">
          <mxGeometry relative="1" as="geometry" />
        </mxCell>
        <mxCell id="WzQMr4qSlncRj3BHudcg-36" value="&lt;font style=&quot;font-size: 18px;&quot;&gt;K&lt;/font&gt;" style="rounded=1;whiteSpace=wrap;html=1;" vertex="1" parent="1">
          <mxGeometry x="570" y="500" width="120" height="60" as="geometry" />
        </mxCell>
        <mxCell id="WzQMr4qSlncRj3BHudcg-38" value="5" style="text;html=1;align=center;verticalAlign=middle;resizable=0;points=[];autosize=1;strokeColor=none;fillColor=none;" vertex="1" parent="1">
          <mxGeometry x="615" y="470" width="30" height="30" as="geometry" />
        </mxCell>
        <mxCell id="WzQMr4qSlncRj3BHudcg-43" value="" style="edgeStyle=orthogonalEdgeStyle;rounded=0;orthogonalLoop=1;jettySize=auto;html=1;" edge="1" parent="1" source="WzQMr4qSlncRj3BHudcg-39" target="WzQMr4qSlncRj3BHudcg-42">
          <mxGeometry relative="1" as="geometry" />
        </mxCell>
        <mxCell id="WzQMr4qSlncRj3BHudcg-46" value="" style="edgeStyle=orthogonalEdgeStyle;rounded=0;orthogonalLoop=1;jettySize=auto;html=1;entryX=0;entryY=0.5;entryDx=0;entryDy=0;exitX=0.5;exitY=1;exitDx=0;exitDy=0;" edge="1" parent="1" source="WzQMr4qSlncRj3BHudcg-39" target="WzQMr4qSlncRj3BHudcg-45">
          <mxGeometry relative="1" as="geometry" />
        </mxCell>
        <mxCell id="WzQMr4qSlncRj3BHudcg-39" value="&lt;font style=&quot;font-size: 18px;&quot;&gt;L&lt;/font&gt;" style="rounded=1;whiteSpace=wrap;html=1;" vertex="1" parent="1">
          <mxGeometry x="570" y="610" width="120" height="60" as="geometry" />
        </mxCell>
        <mxCell id="WzQMr4qSlncRj3BHudcg-41" value="7" style="text;html=1;align=center;verticalAlign=middle;resizable=0;points=[];autosize=1;strokeColor=none;fillColor=none;" vertex="1" parent="1">
          <mxGeometry x="615" y="580" width="30" height="30" as="geometry" />
        </mxCell>
        <mxCell id="WzQMr4qSlncRj3BHudcg-49" value="" style="edgeStyle=orthogonalEdgeStyle;rounded=0;orthogonalLoop=1;jettySize=auto;html=1;entryX=0;entryY=0.5;entryDx=0;entryDy=0;" edge="1" parent="1" source="WzQMr4qSlncRj3BHudcg-42" target="WzQMr4qSlncRj3BHudcg-48">
          <mxGeometry relative="1" as="geometry" />
        </mxCell>
        <mxCell id="WzQMr4qSlncRj3BHudcg-42" value="&lt;font style=&quot;font-size: 18px;&quot;&gt;M&lt;/font&gt;" style="rounded=1;whiteSpace=wrap;html=1;" vertex="1" parent="1">
          <mxGeometry x="780" y="610" width="120" height="60" as="geometry" />
        </mxCell>
        <mxCell id="WzQMr4qSlncRj3BHudcg-44" value="7" style="text;html=1;align=center;verticalAlign=middle;resizable=0;points=[];autosize=1;strokeColor=none;fillColor=none;" vertex="1" parent="1">
          <mxGeometry x="825" y="580" width="30" height="30" as="geometry" />
        </mxCell>
        <mxCell id="WzQMr4qSlncRj3BHudcg-51" style="edgeStyle=orthogonalEdgeStyle;rounded=0;orthogonalLoop=1;jettySize=auto;html=1;exitX=1;exitY=0.5;exitDx=0;exitDy=0;entryX=0;entryY=0.5;entryDx=0;entryDy=0;" edge="1" parent="1" source="WzQMr4qSlncRj3BHudcg-45" target="WzQMr4qSlncRj3BHudcg-48">
          <mxGeometry relative="1" as="geometry" />
        </mxCell>
        <mxCell id="WzQMr4qSlncRj3BHudcg-45" value="&lt;font style=&quot;font-size: 18px;&quot;&gt;N&lt;/font&gt;" style="rounded=1;whiteSpace=wrap;html=1;" vertex="1" parent="1">
          <mxGeometry x="780" y="740" width="120" height="60" as="geometry" />
        </mxCell>
        <mxCell id="WzQMr4qSlncRj3BHudcg-47" value="5" style="text;html=1;align=center;verticalAlign=middle;resizable=0;points=[];autosize=1;strokeColor=none;fillColor=none;" vertex="1" parent="1">
          <mxGeometry x="825" y="710" width="30" height="30" as="geometry" />
        </mxCell>
        <mxCell id="WzQMr4qSlncRj3BHudcg-48" value="&lt;font style=&quot;font-size: 18px;&quot;&gt;O&lt;/font&gt;" style="rounded=1;whiteSpace=wrap;html=1;" vertex="1" parent="1">
          <mxGeometry x="1100" y="300" width="120" height="60" as="geometry" />
        </mxCell>
        <mxCell id="WzQMr4qSlncRj3BHudcg-50" style="edgeStyle=orthogonalEdgeStyle;rounded=0;orthogonalLoop=1;jettySize=auto;html=1;exitX=1;exitY=0.5;exitDx=0;exitDy=0;entryX=0;entryY=0.5;entryDx=0;entryDy=0;entryPerimeter=0;" edge="1" parent="1" source="WzQMr4qSlncRj3BHudcg-48" target="lWj-EIrfLnZZSR6V_0Eu-2">
          <mxGeometry relative="1" as="geometry" />
        </mxCell>
        <mxCell id="WzQMr4qSlncRj3BHudcg-56" value="12" style="text;html=1;align=center;verticalAlign=middle;resizable=0;points=[];autosize=1;strokeColor=none;fillColor=none;" vertex="1" parent="1">
          <mxGeometry x="1140" y="270" width="40" height="30" as="geometry" />
        </mxCell>
        <mxCell id="WzQMr4qSlncRj3BHudcg-57" style="edgeStyle=orthogonalEdgeStyle;rounded=0;orthogonalLoop=1;jettySize=auto;html=1;exitX=0.5;exitY=1;exitDx=0;exitDy=0;" edge="1" parent="1" source="WzQMr4qSlncRj3BHudcg-45" target="WzQMr4qSlncRj3BHudcg-45">
          <mxGeometry relative="1" as="geometry" />
        </mxCell>
      </root>
    </mxGraphModel>
  </diagram>
</mxfile>
